<svg xmlns="http://www.w3.org/2000/svg" width="1600" height="600" viewBox="0 0 1600 600"><defs><linearGradient id="sky" x2="0" y2="1"><stop stop-color="#101b27"/><stop offset="1" stop-color="#25343b"/></linearGradient><radialGradient id="sun"><stop stop-color="#e8aa60" stop-opacity=".28"/><stop offset="1" stop-color="#e8aa60" stop-opacity="0"/></radialGradient><linearGradient id="floor" x2="0" y2="1"><stop stop-color="#48515a" stop-opacity=".4"/><stop offset="1" stop-color="#101923"/></linearGradient></defs><path fill="url(#sky)" d="M0 0h1600v600H0z"/><ellipse cx="850" cy="210" rx="390" ry="280" fill="url(#sun)"/><circle cx="850" cy="155" r="65" fill="none" stroke="#e5c491" stroke-opacity=".12" stroke-width="3"/><path d="m0 380 160-151 125 67 130-195 160 225 119-118 185 163 168-109 127 41 212-192 214 224v265H0" fill="#182630" opacity=".65"/><path d="M60 0h72v403H60m180-403h35v386h-35M1257 0h47v400h-47m166-400h91v470h-91" fill="#101a25"/><path d="M0 46h324v26H0m1204 34h396v23h-396" fill="#1f2c34"/><path d="M0 424q800-69 1600 0v176H0Z" fill="url(#floor)"/><path d="M0 460q800-62 1600 0M0 515q800-36 1600 0M150 600l343-165m292 165 15-175m691 175-360-165" fill="none" stroke="#8d9d98" stroke-opacity=".09" stroke-width="2"/><g fill="#c89d68" opacity=".3"><circle cx="493" cy="220" r="2"/><circle cx="1104" cy="331" r="2"/><circle cx="1071" cy="265" r="2"/><circle cx="590" cy="357" r="3"/><circle cx="771" cy="276" r="2"/></g></svg>
