<svg xmlns="http://www.w3.org/2000/svg" width="512" height="512" viewBox="0 0 512 512"><defs><radialGradient id="halo"><stop stop-color="#152128" stop-opacity=".9"/><stop offset="1" stop-color="#152128" stop-opacity="0"/></radialGradient></defs><circle cx="256" cy="256" r="246" fill="url(#halo)"/><circle cx="256" cy="256" r="174" fill="none" stroke="#d1b780" stroke-opacity=".14"/><path d="M76 256h32m296 0h32M256 76v32m0 296v32" stroke="#d1b780" stroke-opacity=".4"/><path d="m256 84 34 122 120 50-120 41-34 132-40-132-114-41 114-50Z" fill="#72ccb6" stroke="#c5f4d4" stroke-width="6"/><circle cx="256" cy="256" r="44" fill="#f8e7b9"/><path d="m129 109 14 32 32 14-32 14-14 32-14-32-32-14 32-14Zm255 209 11 24 24 11-24 11-11 24-11-24-24-11 24-11Z" fill="#dec17f"/></svg>
