<svg xmlns="http://www.w3.org/2000/svg" width="512" height="512" viewBox="0 0 512 512"><defs><radialGradient id="halo"><stop stop-color="#4c293d" stop-opacity=".9"/><stop offset="1" stop-color="#4c293d" stop-opacity="0"/></radialGradient></defs><circle cx="256" cy="256" r="246" fill="url(#halo)"/><circle cx="256" cy="256" r="174" fill="none" stroke="#d1b780" stroke-opacity=".14"/><path d="M76 256h32m296 0h32M256 76v32m0 296v32" stroke="#d1b780" stroke-opacity=".4"/><ellipse cx="256" cy="435" rx="134" ry="20" fill="#030911" opacity=".6"/><path d="M246 62c90 110 166 180 129 281-13 35-45 46-62 72l-45-28-49 38-22-29-50 7c-33-59-54-167 61-254-26 41-19 71-1 81 36-60 62-99 39-168Z" fill="#743f55" stroke="#ce897c" stroke-width="6"/><path d="M236 169q104 56 88 149l-56 44-70-38q-20-65 38-155" fill="#362c40"/><path d="m191 259 47 7-5 22-35-9m119-20-46 7 5 22 35-9" fill="#f5c87f"/><path d="m228 323 28-11 27 11" fill="none" stroke="#cf9869" stroke-width="5"/></svg>
